<svg width="24" height="24" viewBox="0 0 24 24" fill="none" xmlns="http://www.w3.org/2000/svg">
<path d="M13.7682 0C14.1316 0 14.4112 0.252 14.4112 0.552V4.416C14.4112 6.612 16.5218 8.412 19.0798 8.424C20.1421 8.424 20.9808 8.436 21.6238 8.436L21.8619 8.43511C22.2916 8.43233 22.8701 8.424 23.371 8.424C23.7204 8.424 24 8.664 24 8.964V18.612C24 21.588 21.1904 24 17.7239 24H6.59755C2.96331 24 0 21.468 0 18.348V5.412C0 2.436 2.82353 0 6.30402 0H13.7682ZM15.2638 15.48H7.65987C7.08678 15.48 6.61153 15.876 6.61153 16.368C6.61153 16.86 7.08678 17.268 7.65987 17.268H15.2638C15.8369 17.268 16.3122 16.86 16.3122 16.368C16.3122 15.876 15.8369 15.48 15.2638 15.48ZM12.3844 9.48H7.65987C7.08678 9.48 6.61153 9.888 6.61153 10.38C6.61153 10.872 7.08678 11.268 7.65987 11.268H12.3844C12.9575 11.268 13.4327 10.872 13.4327 10.38C13.4327 9.888 12.9575 9.48 12.3844 9.48ZM16.448 1.0872C16.448 0.57 17.1791 0.3132 17.597 0.6864C19.108 2.0352 21.7484 4.3932 23.2245 5.7108C23.6327 6.0744 23.3335 6.678 22.7451 6.6792C21.5961 6.6828 20.2416 6.6792 19.2674 6.6708C17.7214 6.6708 16.448 5.5776 16.448 4.2504V1.0872Z" fill="#8C5535"/>
<path d="M13.7682 0C14.1316 0 14.4112 0.252 14.4112 0.552V4.416C14.4112 6.612 16.5218 8.412 19.0798 8.424C20.1421 8.424 20.9808 8.436 21.6238 8.436L21.8619 8.43511C22.2916 8.43233 22.8701 8.424 23.371 8.424C23.7204 8.424 24 8.664 24 8.964V18.612C24 21.588 21.1904 24 17.7239 24H6.59755C2.96331 24 0 21.468 0 18.348V5.412C0 2.436 2.82353 0 6.30402 0H13.7682ZM15.2638 15.48H7.65987C7.08678 15.48 6.61153 15.876 6.61153 16.368C6.61153 16.86 7.08678 17.268 7.65987 17.268H15.2638C15.8369 17.268 16.3122 16.86 16.3122 16.368C16.3122 15.876 15.8369 15.48 15.2638 15.48ZM12.3844 9.48H7.65987C7.08678 9.48 6.61153 9.888 6.61153 10.38C6.61153 10.872 7.08678 11.268 7.65987 11.268H12.3844C12.9575 11.268 13.4327 10.872 13.4327 10.38C13.4327 9.888 12.9575 9.48 12.3844 9.48ZM16.448 1.0872C16.448 0.57 17.1791 0.3132 17.597 0.6864C19.108 2.0352 21.7484 4.3932 23.2245 5.7108C23.6327 6.0744 23.3335 6.678 22.7451 6.6792C21.5961 6.6828 20.2416 6.6792 19.2674 6.6708C17.7214 6.6708 16.448 5.5776 16.448 4.2504V1.0872Z" fill="url(#paint0_linear)"/>
<defs>
<linearGradient id="paint0_linear" x1="21.7778" y1="24" x2="6.4375" y2="-2.44519" gradientUnits="userSpaceOnUse">
<stop stop-color="#D92323"/>
<stop offset="1" stop-color="white" stop-opacity="0"/>
</linearGradient>
</defs>
</svg>
