<svg width="24" height="24" viewBox="0 0 24 24" fill="none" xmlns="http://www.w3.org/2000/svg">
<path d="M17.588 0C21.7067 0 24 2.136 24 5.796V18.192C24 21.912 21.7067 24 17.588 24H6.41333C2.36 24 0 21.912 0 18.192V5.796C0 2.136 2.36 0 6.41333 0H17.588ZM6.77333 16.488C6.37333 16.452 5.98667 16.62 5.77333 16.932C5.56 17.232 5.56 17.628 5.77333 17.94C5.98667 18.24 6.37333 18.42 6.77333 18.372H17.2267C17.7587 18.324 18.16 17.9148 18.16 17.436C18.16 16.944 17.7587 16.536 17.2267 16.488H6.77333ZM17.2267 11.0148H6.77333C6.19867 11.0148 5.73333 11.436 5.73333 11.952C5.73333 12.468 6.19867 12.888 6.77333 12.888H17.2267C17.8 12.888 18.2667 12.468 18.2667 11.952C18.2667 11.436 17.8 11.0148 17.2267 11.0148ZM10.7587 5.58H6.77333V5.592C6.19867 5.592 5.73333 6.012 5.73333 6.528C5.73333 7.044 6.19867 7.464 6.77333 7.464H10.7587C11.3333 7.464 11.8 7.044 11.8 6.5148C11.8 6 11.3333 5.58 10.7587 5.58Z" fill="#261914"/>
<path d="M17.588 0C21.7067 0 24 2.136 24 5.796V18.192C24 21.912 21.7067 24 17.588 24H6.41333C2.36 24 0 21.912 0 18.192V5.796C0 2.136 2.36 0 6.41333 0H17.588ZM6.77333 16.488C6.37333 16.452 5.98667 16.62 5.77333 16.932C5.56 17.232 5.56 17.628 5.77333 17.94C5.98667 18.24 6.37333 18.42 6.77333 18.372H17.2267C17.7587 18.324 18.16 17.9148 18.16 17.436C18.16 16.944 17.7587 16.536 17.2267 16.488H6.77333ZM17.2267 11.0148H6.77333C6.19867 11.0148 5.73333 11.436 5.73333 11.952C5.73333 12.468 6.19867 12.888 6.77333 12.888H17.2267C17.8 12.888 18.2667 12.468 18.2667 11.952C18.2667 11.436 17.8 11.0148 17.2267 11.0148ZM10.7587 5.58H6.77333V5.592C6.19867 5.592 5.73333 6.012 5.73333 6.528C5.73333 7.044 6.19867 7.464 6.77333 7.464H10.7587C11.3333 7.464 11.8 7.044 11.8 6.5148C11.8 6 11.3333 5.58 10.7587 5.58Z" fill="url(#paint0_linear)"/>
<defs>
<linearGradient id="paint0_linear" x1="1.5" y1="2.5" x2="22" y2="24" gradientUnits="userSpaceOnUse">
<stop stop-color="#8C5535"/>
<stop offset="1" stop-color="#F20000"/>
</linearGradient>
</defs>
</svg>
